<svg id="Calque_1" data-name="Calque 1" xmlns="http://www.w3.org/2000/svg" viewBox="0 0 1078.29 1078.29"><defs><style>.cls-1{fill:#fff;}</style></defs><title>Facebook</title><g id="Groupe_632" data-name="Groupe 632"><g id="Groupe_45" data-name="Groupe 45"><path id="Tracé_140" data-name="Tracé 140" class="cls-1" d="M539.89-.45C242.13-.46.73,240.9.71,538.66s241.34,539.16,539.11,539.18S1079,836.51,1079,538.74v-.08C1079,240.92,837.63-.45,539.89-.45M402.57,506.16V391.09H467V316.61c0-53.27,25.3-136.68,136.66-136.68l100.3.44V292.08H631a27.6,27.6,0,0,0-28.9,26.23,28.25,28.25,0,0,0,.23,5.12v67.66H705.55L693.64,506.16H602.37v325.7H467V506.16Z" transform="translate(-0.71 0.45)"/></g></g></svg>