<svg id="Calque_1" data-name="Calque 1" xmlns="http://www.w3.org/2000/svg" viewBox="0 0 1080.43 1080.43"><defs><style>.cls-1{fill:#fff;}</style></defs><title>Insta</title><g id="Groupe_48" data-name="Groupe 48"><path id="Tracé_147" data-name="Tracé 147" class="cls-1" d="M540.07,294.11c-79.52,0-88.77.29-120.18,1.77a161.35,161.35,0,0,0-55.11,10.25,90.78,90.78,0,0,0-34.25,22.17,94.09,94.09,0,0,0-22.23,34.17,166.73,166.73,0,0,0-10.2,55.26c-1.45,31.31-1.75,40.73-1.75,120.1s.3,88.76,1.75,120.09a167.47,167.47,0,0,0,10.2,55.24,93.86,93.86,0,0,0,22.23,34.11,92.06,92.06,0,0,0,34.25,22.23,162.89,162.89,0,0,0,55.11,10.29c31.41,1.36,40.74,1.75,120.18,1.75s88.74-.39,120.1-1.75a163.76,163.76,0,0,0,55.17-10.29,98.54,98.54,0,0,0,56.4-56.34A167,167,0,0,0,782,657.92c1.45-31.33,1.67-40.75,1.67-120.09S783.47,449,782,417.73a166.56,166.56,0,0,0-10.28-55.26,98.06,98.06,0,0,0-56.4-56.34,161.78,161.78,0,0,0-55.17-10.25c-31.36-1.48-40.74-1.77-120.1-1.77M698.71,414.79a35.73,35.73,0,1,1,.12,0h-.12M540.07,690.42a152.65,152.65,0,1,1,152.6-152.67v.08A152.56,152.56,0,0,1,540.14,690.42h-.07" transform="translate(0.21)"/><path id="Tracé_148" data-name="Tracé 148" class="cls-1" d="M540.07,0C241.71,0-.18,241.81-.21,540.15S241.59,1080.41,540,1080.43s540.24-241.79,540.27-540.16v-.1C1080.24,241.87,838.43,0,540.12,0h0m0,835c-80.76,0-90.9-.37-122.59-1.75a218.72,218.72,0,0,1-72.16-13.92A145.74,145.74,0,0,1,292.71,785a143.75,143.75,0,0,1-34.25-52.61,216.84,216.84,0,0,1-13.92-72.15c-1.45-31.8-1.81-41.74-1.81-122.58s.36-90.82,1.81-122.51A216.83,216.83,0,0,1,258.46,343a143.4,143.4,0,0,1,34.25-52.63A145.39,145.39,0,0,1,345.32,256a217,217,0,0,1,72.16-13.78c31.69-1.46,41.75-1.81,122.59-1.81s90.87.35,122.56,1.81A216.14,216.14,0,0,1,734.72,256a152,152,0,0,1,86.94,87,218.59,218.59,0,0,1,13.91,72.14c1.37,31.69,1.81,41.75,1.81,122.51s-.44,90.86-1.81,122.58a218.85,218.85,0,0,1-13.91,72.15,152.07,152.07,0,0,1-86.94,86.94,218.31,218.31,0,0,1-72.09,13.92c-31.69,1.38-41.75,1.75-122.56,1.75" transform="translate(0.21)"/><path id="Tracé_149" data-name="Tracé 149" class="cls-1" d="M540.07,438.73a99.07,99.07,0,1,0,99,99.11v-.05a99.06,99.06,0,0,0-99-99.06" transform="translate(0.21)"/></g></svg>