<?xml version="1.0" encoding="utf-8"?>
<!-- Generator: Adobe Illustrator 24.0.1, SVG Export Plug-In . SVG Version: 6.00 Build 0)  -->
<svg version="1.1" id="Calque_2" xmlns="http://www.w3.org/2000/svg" xmlns:xlink="http://www.w3.org/1999/xlink" x="0px" y="0px"
	 viewBox="0 0 1080 1080" style="enable-background:new 0 0 1080 1080;" xml:space="preserve">
<style type="text/css">
	.st0{fill:#FFFFFF;}
</style>
<path id="Tracé_1795" class="st0" d="M540.08,0C241.85,0.01,0.09,241.79,0.1,540.02S241.89,1080.01,540.12,1080
	c298.23-0.01,539.98-241.77,539.98-540C1080.06,241.78,838.31,0.03,540.08,0z M383.09,816.33H251.65V420.68h131.52L383.09,816.33z
	 M317.43,366.63h-0.87c-37.78,2.29-70.27-26.49-72.56-64.27c-2.29-37.78,26.49-70.27,64.27-72.56c3.34-0.2,6.69-0.16,10.02,0.13
	c37.77-2.7,70.58,25.73,73.28,63.5c2.7,37.77-25.73,70.58-63.5,73.28c-3.55,0.25-7.11,0.23-10.65-0.07H317.43z M857.39,816.33
	h-131.5V604.67c0-53.2-19.04-89.43-66.63-89.43c-30.42,0.15-57.47,19.4-67.57,48.09c-3.37,10.34-4.84,21.21-4.33,32.07v220.98
	H455.94c0,0,1.73-358.56,0-395.66h131.5v56.02c24.25-42.17,69.93-67.37,118.54-65.38c86.53,0,151.41,56.56,151.41,178.08V816.33z"/>
</svg>
