<!DOCTYPE svg PUBLIC "-//W3C//DTD SVG 1.1//EN" "http://www.w3.org/Graphics/SVG/1.1/DTD/svg11.dtd">
<!-- <!DOCTYPE svg PUBLIC "-//W3C//DTD SVG 1.1//EN" "http://www.w3.org/Graphics/SVG/1.1/DTD/svg11.dtd"> -->
<svg xmlns="http://www.w3.org/2000/svg">
<symbol id="logo" viewBox="0 0 419 558" >
<path fill="#008DAD" d="M391.8,52.5L29.8,0.3C13.4-1.9,0,9.7,0,26.4v439.2c0,13.8,11.2,24.9,24.9,24.9h43.8l1.6,68.6l92.5-68.6h229
	c13.8,0,24.9-11.2,24.9-24.9V77.5C416.7,63.7,405.6,52.6,391.8,52.5z"/>
<path fill="#FFFFFF" d="M302,198.8c7.3-13.1,11.5-33.7,10-53.9s-10.4-28.2-18.9-29.7c-8.5-1.5-39.9-3.9-80.7,93.9S191.9,341,222,343.2
	c8.6,0.2,22.5-1.8,32.4-15.6c-5.7,15.8-7.3,29-1.2,39.5c7.4-7.6,12.1-7.4,14.5-12.5c2.5-5.2,30.6-111.7,30.6-111.7
	c3-0.2,5.7-3.7,7.5-7.2c1.8-3.5,8.9-14.8,8.9-14.8c-26.2,4-64.3,14.3-66,16.6c-1.7,2.2-5.7,11.1-5.2,16.3s11.4,4.2,17.6,3
	c6.2-1.2,18.5-7.9,18.5-7.9c-9.6,27-26.7,83.1-55.9,80.8c-29.2-2.2-7.5-68,9.4-108.5s43.1-83.2,52.4-81.3
	C301.1,142.9,285.6,192.9,302,198.8z"/>
<path fill="#FFFFFF" d="M45.3,426.8c-1.5,0.3-3.1,0.5-4.7,0.5c-3.5,0-8.3-1.7-8.3-8.9V414c0-7.4,4.8-8.9,8.3-8.9c1.6,0,3.1,0.1,4.7,0.5
	c0.4,0.1,0.6,0.3,0.6,0.7v2c0,0.3-0.2,0.6-0.5,0.6c0,0-0.1,0-0.1,0l0,0c-1-0.1-3-0.2-4.6-0.2c-2.5,0-4.2,1.3-4.2,5.5v4.3
	c0,4.1,1.8,5.5,4.2,5.5c1.6,0,3.6-0.1,4.6-0.2l0,0c0.3,0,0.6,0.2,0.6,0.5c0,0,0,0.1,0,0.1v2C45.9,426.6,45.6,426.8,45.3,426.8z"/>
<path fill="#FFFFFF" d="M56.5,427.3c-4.8,0-8.4-2.7-8.4-9.2v-4c0-6.5,3.5-9.2,8.4-9.2s8.4,2.7,8.4,9.2v4
	C64.9,424.6,61.3,427.3,56.5,427.3z M60.8,414.2c0-3.9-1.4-5.6-4.3-5.6c-2.9,0-4.2,1.7-4.2,5.6v4c0,3.9,1.4,5.6,4.2,5.6
	c2.9,0,4.3-1.7,4.3-5.6V414.2z"/>
<path fill="#FFFFFF" d="M84,427.1h-3c-0.8,0.1-1.5-0.3-1.8-1.1l-6.5-14.3c-0.1-0.2-0.2-0.2-0.3-0.2s-0.1,0-0.1,0.2v14.8
	c0,0.3-0.2,0.6-0.5,0.6c0,0,0,0,0,0h-2.5c-0.3,0-0.6-0.3-0.6-0.6l0,0v-20.1c0-0.6,0.5-1.2,1.2-1.2c0,0,0,0,0,0H73
	c0.6,0,0.9,0.2,1.3,0.9l6.8,15.1c0,0.1,0.1,0.2,0.2,0.2s0.1-0.1,0.1-0.3v-15.4c0-0.3,0.2-0.5,0.5-0.6c0,0,0,0,0.1,0h2.5
	c0.3,0,0.5,0.2,0.6,0.5c0,0,0,0,0,0v20.1C85.2,426.5,84.7,427.1,84,427.1L84,427.1z"/>
<path fill="#FFFFFF" d="M95.1,427.3c-1.7,0-3.5-0.2-5.2-0.5c-0.3,0-0.5-0.3-0.6-0.6v-2.1c0-0.3,0.3-0.5,0.6-0.6l0,0
	c1.2,0.1,4.1,0.3,5.2,0.3c2.6,0,3.4-0.9,3.4-2.7c0-1.1-0.6-1.7-2.5-2.9l-3.9-2.3c-2.7-1.6-3.5-3.3-3.5-5.4c0-3.2,1.9-5.6,7.3-5.6
	c1.9,0,3.8,0.2,5.6,0.5c0.3,0,0.5,0.3,0.5,0.6v2.2c0,0.3-0.2,0.5-0.5,0.5c0,0,0,0,0,0l0,0c-1.9-0.2-3.9-0.3-5.8-0.3
	c-2.2,0-3.1,0.8-3.1,2.1c0,1,0.5,1.6,2.4,2.6l3.5,2c3.2,1.8,4.1,3.7,4.1,6C102.7,424.1,101,427.3,95.1,427.3z"/>
<path fill="#FFFFFF" d="M118.7,426.9c-1.8,0.3-3.7,0.5-5.6,0.4c-3.8,0-6.8-1-6.8-6v-10.2c0-5,3-6,6.8-6c1.9,0,3.7,0.1,5.6,0.4
	c0.4,0,0.6,0.2,0.6,0.6v1.9c0,0.3-0.2,0.6-0.6,0.6c0,0,0,0,0,0h-6c-1.7,0-2.3,0.6-2.3,2.5v3.2h8c0.3,0,0.6,0.3,0.6,0.6v2.1
	c0,0.3-0.3,0.6-0.6,0.6h-8v3.8c0,1.9,0.6,2.5,2.3,2.5h6c0.3,0,0.6,0.2,0.6,0.6c0,0,0,0,0,0v1.9C119.3,426.7,119.1,426.8,118.7,426.9
	z"/>
<path fill="#FFFFFF" d="M126.8,427.1h-2.9c-0.3,0-0.6-0.2-0.6-0.6c0,0,0,0,0,0v-20.7c0-0.3,0.3-0.6,0.6-0.6c0,0,0,0,0,0h2.9
	c0.3,0,0.6,0.2,0.6,0.5c0,0,0,0,0,0v20.7C127.3,426.8,127.1,427.1,126.8,427.1C126.8,427.1,126.8,427.1,126.8,427.1z"/>
<path fill="#FFFFFF" d="M143.5,426.9c-1.7,0.3-3.3,0.4-5,0.4c-3.8,0-6.8-1-6.8-6v-15.4c0-0.3,0.2-0.6,0.6-0.6c0,0,0,0,0,0h3
	c0.3,0,0.6,0.2,0.6,0.6c0,0,0,0,0,0v15.4c0,1.9,0.6,2.5,2.3,2.5h5.4c0.3,0,0.6,0.3,0.6,0.6l0,0v1.9
	C144.1,426.7,144,426.8,143.5,426.9z"/>
<path fill="#FFFFFF" d="M160.8,427.3c-1.9,0-3.9-0.1-5.8-0.4c-0.4,0-0.8-0.4-0.8-0.8c0,0,0-0.1,0-0.1v-19.8c-0.1-0.4,0.2-0.8,0.7-0.9
	c0,0,0.1,0,0.1,0c1.9-0.2,3.9-0.3,5.8-0.3c5.9,0,9.2,3.2,9.2,8.9v4.3C170,424.1,166.7,427.3,160.8,427.3z M166,414
	c0-4.5-2.2-5.6-5.2-5.6c-1.1,0-1.8,0-2.5,0.1v15.3c0.6,0,1.4,0.1,2.5,0.1c3,0,5.2-1.1,5.2-5.5V414z"/>
<path fill="#FFFFFF" d="M186.2,426.9c-1.8,0.3-3.7,0.5-5.6,0.4c-3.8,0-6.8-1-6.8-6v-10.2c0-5,3-6,6.8-6c1.9,0,3.7,0.1,5.6,0.4
	c0.4,0,0.6,0.2,0.6,0.6v1.9c0,0.3-0.3,0.6-0.6,0.6c0,0,0,0,0,0h-6c-1.7,0-2.3,0.6-2.3,2.5v3.2h8c0.3,0,0.6,0.3,0.6,0.6v2.1
	c0,0.3-0.3,0.6-0.6,0.6h-8v3.8c0,1.9,0.6,2.5,2.3,2.5h6c0.3,0,0.6,0.2,0.6,0.6c0,0,0,0,0,0v1.9C186.8,426.7,186.6,426.8,186.2,426.9
	z M184.9,399.7l-3.5,3.6c-0.1,0.2-0.4,0.4-0.7,0.4h-2.5c-0.2,0-0.3-0.1-0.3-0.2c0-0.1,0-0.2,0.1-0.3l2.8-3.5
	c0.3-0.3,0.4-0.4,0.8-0.4h3.1c0.2,0,0.3,0.1,0.3,0.2C185,399.6,184.9,399.7,184.9,399.7L184.9,399.7z"/>
<path fill="#FFFFFF" d="M197.5,418.9c-0.8,0-1.9-0.1-2.6-0.1v7.7c0,0.3-0.2,0.6-0.6,0.6c0,0,0,0,0,0h-3c-0.3,0-0.6-0.3-0.6-0.6l0,0
	v-20.2c0-0.6,0.3-0.8,0.9-0.9c1.9-0.3,3.8-0.4,5.8-0.4c4.5,0,8.5,1.6,8.5,6.8v0.3C205.9,417.3,202,418.9,197.5,418.9z M201.9,411.8
	c0-2.5-1.5-3.4-4.4-3.4c-0.6,0-2.1,0-2.6,0.1v7c0.5,0,2.1,0.1,2.6,0.1c3.2,0,4.4-1.2,4.4-3.5V411.8z"/>
<path fill="#FFFFFF" d="M223.2,427.1h-3.1c-0.3,0-0.5-0.2-0.6-0.5l-1.3-5.6h-6.8l-1.4,5.6c-0.1,0.3-0.3,0.5-0.6,0.5h-3.1
	c-0.3,0-0.5-0.2-0.5-0.5c0,0,0,0,0,0c0,0,0-0.1,0-0.1l4.8-18.4c0.7-2.3,3.1-3.5,5.4-2.8c1.3,0.4,2.4,1.5,2.8,2.8l4.8,18.4
	c0,0,0,0.1,0,0.1C223.7,426.8,223.5,427,223.2,427.1z M215.3,408.9c-0.1-0.4-0.2-0.5-0.5-0.5s-0.4,0.1-0.5,0.5l-2.1,8.7h5.2
	L215.3,408.9z"/>
<path fill="#FFFFFF" d="M242,427.1h-3.6c-0.3,0-0.4-0.3-0.6-0.6l-4.2-7.8h-0.4c-0.8,0-1.9-0.1-2.6-0.1v8c0,0.3-0.2,0.6-0.5,0.6
	c0,0,0,0,0,0h-3c-0.3,0-0.6-0.2-0.6-0.6c0,0,0,0,0,0v-20.2c0-0.6,0.4-0.8,0.9-0.9c1.9-0.3,3.8-0.4,5.8-0.4c4.5,0,8.5,1.6,8.5,6.6
	v0.2c0.2,2.6-1.5,5.1-4,6l4.6,8.6c0,0.1,0,0.2,0,0.2C242.3,426.8,242.2,427,242,427.1C242,427.1,242,427.1,242,427.1z M237.5,411.7
	c0-2.2-1.5-3.1-4.4-3.1c-0.6,0-2.1,0-2.6,0.1v6.6c0.5,0,2.1,0.1,2.6,0.1c3,0,4.4-0.8,4.4-3.4V411.7z"/>
<path fill="#FFFFFF" d="M258.1,408.7H253v17.9c0,0.3-0.3,0.6-0.6,0.6c0,0,0,0,0,0h-3c-0.3,0-0.6-0.2-0.6-0.6c0,0,0,0,0,0v-17.9h-5.1
	c-0.3,0-0.6-0.2-0.6-0.5c0,0,0,0,0,0v-2.3c0-0.3,0.2-0.6,0.6-0.6c0,0,0,0,0,0H258c0.3,0,0.6,0.2,0.6,0.5c0,0,0,0,0,0v2.3
	C258.6,408.4,258.4,408.6,258.1,408.7z"/>
<path fill="#FFFFFF" d="M273.3,426.9c-1.8,0.3-3.7,0.5-5.6,0.4c-3.8,0-6.8-1-6.8-6v-10.2c0-5,3-6,6.8-6c1.9,0,3.7,0.1,5.6,0.4
	c0.4,0,0.6,0.2,0.6,0.6v1.9c0,0.3-0.2,0.6-0.6,0.6c0,0,0,0,0,0h-6c-1.7,0-2.3,0.6-2.3,2.5v3.2h8c0.3,0,0.6,0.3,0.6,0.6v2.1
	c0,0.3-0.3,0.6-0.6,0.6h-8v3.8c0,1.9,0.6,2.5,2.3,2.5h6c0.3,0,0.6,0.2,0.6,0.6c0,0,0,0,0,0v1.9C273.9,426.7,273.7,426.8,273.3,426.9
	z"/>
<path fill="#FFFFFF" d="M296.2,427.1h-3c-0.3,0-0.5-0.3-0.5-0.6v-13.7c0-0.2,0-0.3-0.1-0.3c-0.1,0-0.1,0.1-0.1,0.2l-2.8,5.6
	c-0.2,0.3-0.6,0.5-0.9,0.5h-3c-0.4,0-0.7-0.2-0.9-0.5l-2.8-5.6c0-0.1-0.1-0.2-0.1-0.2c0,0-0.1,0.1-0.1,0.3v13.7
	c0,0.3-0.2,0.5-0.5,0.6h-3c-0.2,0-0.5-0.1-0.5-0.4c0,0,0,0,0,0v-20.2c0-0.6,0.5-1.2,1.2-1.2h2.4c0.5,0,0.9,0.3,1.1,0.7l4.5,8.9
	c0.1,0.3,0.2,0.4,0.3,0.4s0.2-0.1,0.3-0.4l4.5-8.9c0.2-0.4,0.6-0.7,1.1-0.7h2.4c0.6,0,1.2,0.5,1.2,1.1c0,0,0,0,0,0v20.2
	C296.7,426.9,296.5,427.1,296.2,427.1C296.2,427.1,296.2,427.1,296.2,427.1z"/>
<path fill="#FFFFFF" d="M313.5,426.9c-1.8,0.3-3.7,0.5-5.6,0.4c-3.8,0-6.8-1-6.8-6v-10.2c0-5,3-6,6.8-6c1.9,0,3.7,0.1,5.6,0.4
	c0.4,0,0.6,0.2,0.6,0.6v1.9c0,0.3-0.2,0.6-0.6,0.6c0,0,0,0,0,0h-6c-1.7,0-2.3,0.6-2.3,2.5v3.2h7.9c0.3,0,0.6,0.3,0.6,0.6v2.1
	c0,0.3-0.3,0.6-0.6,0.6h-7.9v3.8c0,1.9,0.6,2.5,2.3,2.5h6c0.3,0,0.6,0.2,0.6,0.6c0,0,0,0,0,0v1.9C314,426.7,313.9,426.8,313.5,426.9
	z"/>
<path fill="#FFFFFF" d="M333.3,427.1h-3c-0.8,0.1-1.5-0.3-1.8-1.1l-6.5-14.3c-0.1-0.2-0.2-0.2-0.3-0.2c-0.1,0-0.1,0-0.1,0.2v14.8
	c0,0.3-0.2,0.6-0.6,0.6c0,0,0,0,0,0h-2.5c-0.3,0-0.6-0.2-0.6-0.6c0,0,0,0,0,0v-20.1c0-0.6,0.5-1.2,1.2-1.2h3.2
	c0.6,0,0.9,0.2,1.3,0.9l6.8,15.1c0,0.1,0.1,0.2,0.2,0.2c0.1,0,0.1-0.1,0.1-0.3v-15.4c0-0.3,0.2-0.5,0.5-0.6c0,0,0,0,0,0h2.5
	c0.3,0,0.5,0.2,0.6,0.5c0,0,0,0,0,0v20.1C334.5,426.5,334,427.1,333.3,427.1z"/>
<path fill="#FFFFFF" d="M351.6,408.7h-5.1v17.9c0,0.3-0.3,0.6-0.6,0.6c0,0,0,0,0,0h-2.9c-0.3,0-0.6-0.3-0.6-0.6l0,0v-17.9h-5.1
	c-0.3,0-0.6-0.2-0.6-0.5c0,0,0,0,0,0v-2.3c0-0.3,0.2-0.6,0.6-0.6c0,0,0,0,0,0h14.4c0.3,0,0.6,0.2,0.6,0.5c0,0,0,0,0,0v2.3
	C352.1,408.4,351.9,408.7,351.6,408.7C351.6,408.7,351.6,408.7,351.6,408.7z"/>
<path fill="#FFFFFF" d="M368.6,427.1h-3.1c-0.3,0-0.5-0.2-0.6-0.5l-1.4-5.6h-6.8l-1.3,5.6c-0.1,0.3-0.3,0.5-0.6,0.5h-3.1
	c-0.3,0-0.5-0.2-0.5-0.5c0,0,0,0,0,0c0,0,0-0.1,0-0.1L356,408c0.7-2.3,3.1-3.5,5.4-2.8c1.3,0.4,2.4,1.5,2.8,2.8l4.8,18.4
	c0,0,0,0.1,0,0.1C369,426.8,368.8,427,368.6,427.1z M360.7,408.9c-0.1-0.4-0.2-0.5-0.5-0.5s-0.4,0.1-0.5,0.5l-2.1,8.7h5.2
	L360.7,408.9z"/>
<path fill="#FFFFFF" d="M383.1,426.9c-1.6,0.3-3.3,0.4-5,0.4c-3.8,0-6.8-1-6.8-6v-15.4c0-0.3,0.3-0.6,0.6-0.6c0,0,0,0,0,0h2.9
	c0.3,0,0.6,0.2,0.6,0.6c0,0,0,0,0,0v15.4c0,1.9,0.6,2.5,2.3,2.5h5.4c0.3,0,0.6,0.2,0.6,0.6c0,0,0,0,0,0v1.9
	C383.6,426.7,383.5,426.8,383.1,426.9z"/>
<path fill="#FFFFFF" d="M55.8,463.9h-4c-0.4,0-0.8-0.4-0.8-0.8v-12.4H39.4v12.4c0,0.5-0.4,0.8-0.8,0.8h-4c-0.4,0-0.8-0.4-0.8-0.8v-28.6
	c0-0.4,0.3-0.8,0.8-0.8c0,0,0,0,0,0h4.1c0.4,0,0.8,0.3,0.8,0.8c0,0,0,0,0,0v11.2H51v-11.2c0-0.4,0.3-0.8,0.8-0.8c0,0,0,0,0,0h4
	c0.4,0,0.8,0.3,0.8,0.7c0,0,0,0,0,0v28.6C56.6,463.5,56.3,463.9,55.8,463.9C55.8,463.9,55.8,463.9,55.8,463.9z"/>
<path fill="#FFFFFF" d="M82.3,463.9H78c-0.4,0-0.7-0.3-0.8-0.7l-1.9-7.7H66l-1.9,7.7c-0.1,0.4-0.4,0.7-0.8,0.7h-4.3
	c-0.4,0-0.7-0.3-0.7-0.7c0,0,0,0,0,0c0-0.1,0-0.1,0-0.2l6.7-25.5c0.5-2.6,3-4.4,5.7-4.1c2.7-0.3,5.1,1.5,5.6,4.1L83,463
	c0,0.1,0,0.1,0,0.2C83,463.6,82.7,463.9,82.3,463.9z M71.4,438.8c-0.1-0.5-0.2-0.6-0.6-0.6c-0.4,0-0.5,0.2-0.7,0.6l-3,12.1h7.1
	L71.4,438.8z"/>
<path fill="#FFFFFF" d="M95,464.2c-6.5,0-11.2-2.8-11.2-11.5v-18.2c0-0.4,0.3-0.8,0.8-0.8c0,0,0,0,0,0h4c0.4,0,0.8,0.3,0.8,0.7
	c0,0,0,0,0,0v18.2c0,4.6,1.1,6.8,5.5,6.8s5.5-2.2,5.5-6.8v-18.2c0-0.4,0.3-0.8,0.8-0.8c0,0,0,0,0,0h4c0.4,0,0.8,0.3,0.8,0.7
	c0,0,0,0,0,0v18.2C106.2,461.4,101.6,464.2,95,464.2z"/>
<path fill="#FFFFFF" d="M128.7,438.4h-7.1v24.7c0,0.4-0.4,0.8-0.8,0.8h-4c-0.5,0-0.8-0.4-0.8-0.8v-24.7h-7.1c-0.4,0-0.8-0.3-0.8-0.7
	c0,0,0,0,0,0v-3.2c0-0.4,0.3-0.8,0.8-0.8c0,0,0,0,0,0h19.9c0.4,0,0.8,0.3,0.8,0.8c0,0,0,0,0,0v3.2
	C129.5,438.1,129.1,438.5,128.7,438.4C128.7,438.4,128.7,438.4,128.7,438.4z"/>
<path fill="#FFFFFF" d="M147.6,463.7c-2.5,0.5-5.1,0.6-7.7,0.6c-5.3,0-9.4-1.4-9.4-8.3v-14.2c0-6.9,4.1-8.3,9.4-8.3
	c2.6-0.1,5.2,0.1,7.7,0.6c0.6,0.1,0.8,0.3,0.8,0.8v2.6c0,0.4-0.4,0.8-0.8,0.8h0h-8.3c-2.4,0-3.2,0.8-3.2,3.5v4.5h11
	c0.4,0,0.8,0.4,0.8,0.8v3c0,0.4-0.4,0.8-0.8,0.8h-11v5.2c0,2.7,0.9,3.5,3.2,3.5h8.3c0.4,0,0.8,0.4,0.8,0.8v2.6
	C148.4,463.4,148.2,463.6,147.6,463.7z"/>
<path fill="#FFFFFF" d="M159.4,453.4h-8c-0.4,0-0.8-0.3-0.8-0.7c0,0,0,0,0,0v-2.6c0-0.4,0.3-0.8,0.8-0.8c0,0,0,0,0,0h8
	c0.4,0,0.8,0.3,0.8,0.7c0,0,0,0,0,0.1v2.6C160.2,453.1,159.9,453.4,159.4,453.4C159.4,453.4,159.4,453.4,159.4,453.4z"/>
<path fill="#FFFFFF" d="M181.8,463.5c-2.9,0.5-5.9,0.8-8.9,0.7c-4.4,0-10.9-2.9-10.9-12.5v-5.9c0-9.6,6.2-12.5,11-12.5
	c2.9,0,5.8,0.3,8.7,0.7c0.5,0.1,0.8,0.3,0.8,0.8v2.7c0,0.6-0.2,0.8-0.8,0.8h-0.1c-1.9-0.2-4.7-0.3-8.6-0.3c-2.7,0-5.3,1.9-5.3,7.7
	v5.9c0,5.8,2.8,7.6,5.2,7.6c1.5,0,2.8,0,4-0.1v-10.4c0-0.4,0.3-0.8,0.8-0.8c0,0,0,0,0,0h4.1c0.5,0,0.8,0.4,0.8,0.8v13.7
	C182.6,463.1,182.3,463.5,181.8,463.5z"/>
<path fill="#FFFFFF" d="M208.4,463.9h-4.2c-0.4,0-0.7-0.3-0.8-0.7l-1.9-7.7h-9.3l-1.9,7.7c-0.1,0.4-0.4,0.7-0.8,0.7h-4.3
	c-0.4,0-0.7-0.3-0.7-0.7c0,0,0,0,0,0c0-0.1,0-0.1,0-0.2l6.7-25.5c1.1-3.1,4.4-4.8,7.6-3.7c1.8,0.6,3.1,2,3.7,3.7l6.7,25.5
	c0,0.1,0,0.1,0,0.2C209.1,463.6,208.8,463.9,208.4,463.9C208.4,463.9,208.4,463.9,208.4,463.9z M197.4,438.8
	c-0.1-0.5-0.3-0.6-0.7-0.6c-0.4,0-0.5,0.2-0.7,0.6l-3,12.1h7.2L197.4,438.8z"/>
<path fill="#FFFFFF" d="M232.3,463.9h-5c-0.4,0-0.6-0.4-0.8-0.8l-5.8-10.8h-0.6c-1.1,0-2.7-0.1-3.6-0.2v11c0,0.4-0.3,0.8-0.8,0.8
	c0,0,0,0,0,0h-4.1c-0.5,0-0.8-0.4-0.8-0.8v-28c0-0.8,0.5-1.1,1.3-1.2c2.6-0.4,5.3-0.5,8-0.5c6.2,0,11.7,2.2,11.7,9.2v0.4
	c0.2,3.7-2,7.1-5.5,8.3l6.4,11.9c0.1,0.1,0.1,0.2,0.1,0.3C232.8,463.7,232.6,463.9,232.3,463.9C232.4,463.9,232.3,463.9,232.3,463.9
	z M226.2,442.6c0-3-2-4.4-6.1-4.4c-0.9,0-2.9,0.1-3.6,0.2v9.1c0.7,0,3,0.1,3.6,0.1c4.2,0,6.1-1.1,6.1-4.7V442.6z"/>
<path fill="#FFFFFF" d="M245.3,464.2c-6.7,0-11.6-3.7-11.6-12.7v-5.5c0-8.9,4.9-12.7,11.6-12.7s11.6,3.7,11.6,12.7v5.5
	C256.9,460.5,252,464.2,245.3,464.2z M251.3,446.1c0-5.4-1.9-7.8-6-7.8s-5.9,2.4-5.9,7.8v5.5c0,5.4,1.9,7.8,5.9,7.8s6-2.4,6-7.8
	V446.1z"/>
<path fill="#FFFFFF" d="M281.4,463.9h-4.1c-1.1,0.2-2.2-0.4-2.5-1.5l-8.9-19.8c-0.1-0.2-0.2-0.3-0.4-0.3s-0.2,0.1-0.2,0.3v20.4
	c0,0.4-0.3,0.8-0.7,0.8c0,0,0,0,0,0H261c-0.5,0-0.8-0.4-0.8-0.8v-27.7c0-0.9,0.7-1.6,1.6-1.6h4.5c0.8,0,1.3,0.2,1.8,1.3l9.5,20.9
	c0.1,0.2,0.2,0.3,0.3,0.3c0.1,0,0.2-0.1,0.2-0.4v-21.4c0-0.4,0.3-0.8,0.7-0.8c0,0,0,0,0.1,0h3.5c0.4,0,0.8,0.3,0.8,0.7
	c0,0,0,0,0,0.1v27.8c0,0.9-0.7,1.6-1.6,1.6C281.5,463.9,281.4,463.9,281.4,463.9z"/>
<path fill="#FFFFFF" d="M308.3,463.9h-4.1c-1.1,0.2-2.1-0.4-2.5-1.5l-8.9-19.8c-0.1-0.2-0.2-0.3-0.4-0.3s-0.2,0.1-0.2,0.3v20.4
	c0,0.4-0.3,0.8-0.8,0.8c0,0,0,0,0,0h-3.4c-0.5,0-0.8-0.4-0.8-0.8v-27.7c0-0.9,0.7-1.6,1.6-1.6h4.5c0.8,0,1.3,0.2,1.8,1.3l9.5,20.9
	c0.1,0.2,0.2,0.3,0.3,0.3c0.1,0,0.2-0.1,0.2-0.4v-21.4c0-0.4,0.3-0.8,0.7-0.8c0,0,0,0,0.1,0h3.5c0.4,0,0.8,0.3,0.8,0.7
	c0,0,0,0,0,0.1v27.8c0,0.9-0.7,1.6-1.6,1.6C308.4,463.9,308.3,463.9,308.3,463.9z"/>
<path fill="#FFFFFF" d="M331.1,463.7c-2.5,0.5-5.1,0.6-7.7,0.6c-5.3,0-9.4-1.4-9.4-8.3v-14.2c0-6.9,4.1-8.3,9.4-8.3
	c2.6-0.1,5.2,0.1,7.7,0.6c0.6,0.1,0.8,0.3,0.8,0.8v2.6c0,0.4-0.4,0.8-0.8,0.8h-8.3c-2.4,0-3.2,0.8-3.2,3.5v4.5h11
	c0.4,0,0.8,0.4,0.8,0.8l0,0v3c0,0.4-0.4,0.8-0.8,0.8l0,0h-11v5.2c0,2.7,0.8,3.5,3.2,3.5h8.3c0.5,0,0.8,0.4,0.8,0.8v2.6
	C331.9,463.4,331.7,463.6,331.1,463.7z"/>
<rect x="33.8" y="375.2" fill="#722278" width="44.7" height="15.6"/>
<rect x="84.9" y="375.2" fill="#313483" width="44.7" height="15.6"/>
<rect x="136.1" y="375.2" fill="#00A2E2" width="44.7" height="15.6"/>
<rect x="187.2" y="375.2" fill="#A5BF00" width="44.7" height="15.6"/>
<rect x="238.4" y="375.2" fill="#FFD600" width="44.7" height="15.6"/>
<rect x="289.5" y="375.2" fill="#E77400" width="44.7" height="15.6"/>
<rect x="340.7" y="375.2" fill="#DB3943" width="44.7" height="15.6"/>
<path fill="#B2D8E2" d="M339.3,463.9h-3.6c-0.5,0-0.8-0.4-0.8-0.8v-4.6c0-0.4,0.4-0.8,0.8-0.8c0,0,0,0,0,0h3.6c0.4,0,0.8,0.3,0.8,0.8
	c0,0,0,0,0,0v4.6C340.2,463.5,339.8,463.9,339.3,463.9z"/>
<path fill="#B2D8E2" d="M360.9,438.2h-8.3c-2.4,0-3.2,0.8-3.2,3.5v4.4h11c0.4,0,0.8,0.4,0.8,0.8v3c0,0.4-0.4,0.8-0.8,0.8h-11v12.4
	c0,0.5-0.4,0.8-0.8,0.8h-4c-0.4,0-0.8-0.4-0.8-0.8v-21.5c0-6.9,4.1-8.3,9.4-8.3c2.6-0.1,5.2,0.1,7.7,0.6c0.6,0.1,0.8,0.3,0.8,0.8
	v2.6C361.7,437.8,361.4,438.2,360.9,438.2C360.9,438.2,360.9,438.2,360.9,438.2z"/>
<path fill="#B2D8E2" d="M386.6,463.9h-5c-0.4,0-0.6-0.4-0.8-0.8l-5.8-10.8h-0.6c-1,0-2.7-0.1-3.6-0.2v11c0,0.4-0.3,0.8-0.8,0.8
	c0,0,0,0,0,0H366c-0.5,0-0.8-0.4-0.8-0.8v-28c0-0.8,0.5-1.1,1.3-1.2c2.6-0.4,5.3-0.5,8-0.5c6.3,0,11.7,2.2,11.7,9.2v0.4
	c0.2,3.7-2,7.1-5.5,8.3l6.4,11.9c0.1,0.1,0.1,0.2,0.1,0.3C387.1,463.7,386.9,463.9,386.6,463.9C386.7,463.9,386.6,463.9,386.6,463.9
	z M380.5,442.6c0-3-2-4.4-6.1-4.4c-0.8,0-2.9,0.1-3.6,0.2v9.1c0.6,0,3,0.1,3.6,0.1c4.2,0,6.1-1.1,6.1-4.7V442.6z"/>
<path fill="#FFFFFF" d="M307,87.6c-16.1,2-37.9,6.2-61,11.5c12.4-34,28-76.5,29.9-80.7c2.4-5.4,3-10.9,1.9-13.6
	c-18.9,21.2-38.7,59-57,100.1c-12.8,3.1-25.6,6.3-37.7,9.4c8.8-26.3,15.6-49.7,19.7-64.8c0,0-4.7-4.5-6.9-6.5
	c-1.8-1.7-4.4-2.4-6.8-1.8c-3.2,0.7-6.3,2.1-8.9,4c-1.7,3.1-3,6.4-3.7,9.9C170.8,79.4,165,101,159,120.6
	c-28.2,7.5-48.2,13.2-48.2,13.2c-5.4-6.9-27.9-14.8-26.8-4.9c1,9.9,1,11.1,1.3,15.5c0.3,5,9.6,12.6,33.6,9.2c5.8-0.8,17.3-3.4,32-7
	c-16.7,49.9-34.2,87.3-52.4,130.4c28.2-20.5,55.5-80.8,75.7-136.4c11.2-3,23.3-6.4,35.8-10.1c-10.9,25.8-21,51.8-29.8,74.9
	c-5.2,11.9-5.4,20.8-3.7,25.7c1.5,4.3,3.2,9.1,13.3,14.3c2.7-15.1,35.3-87.3,46.9-120c0.4-1.1,0.8-2.4,1.3-3.6
	c22.2-7.1,43.7-14.8,61-22.3L307,87.6z"/>
</symbol>
</svg>