<svg xmlns="http://www.w3.org/2000/svg" viewBox="0 0 681.47 1069.31"><defs><style>.cls-1{fill:#fff;}</style></defs><title>logo HG</title><g id="G"><path class="cls-1" d="M812.66,573.21c21.64-38.6,33.82-99.48,29.54-159.14s-30.56-83.29-55.72-87.53S668.67,315,548.29,603.91,487.81,993,576.79,999.45c25.5.61,66.36-5.23,95.52-46.09-16.76,46.7-21.53,85.67-3.46,116.53,21.71-22.42,35.57-21.68,42.88-37s90.44-329.75,90.44-329.75c8.76-.72,16.79-11,21.9-21.17s26.26-43.75,26.26-43.75C773,649.9,660.66,680.51,655.55,687.08s-16.78,32.85-15.33,48.16S673.79,747.63,692,744s54.69-23.36,54.69-23.36C718.29,800.16,668,965.77,581.85,959.2S560,758.55,609.58,638.94s127.28-245.67,154.67-240C810.22,408.41,764.25,555.75,812.66,573.21Z" transform="translate(-168.86 -0.58)"/></g><g id="H"><path class="cls-1" d="M827.72,245c-47.54,5.82-111.72,18.47-180.06,33.83,36.48-100.49,82.71-225.7,88.26-238.14,7.17-16,8.63-32.06,5.72-40.1C685.93,63.1,627.5,174.82,573.36,296.13c-37.79,9.09-75.52,18.51-111.15,27.68,25.94-77.52,46.12-146.58,58.29-191.34,0,0-13.79-13-20.42-19.31a21.66,21.66,0,0,0-20.36-5.34c-5.1,1.48-11.89,2.41-26.26,11.69-2.2,2.92-6.55,12.4-10.93,29.17-17,72.22-34.3,136-51.82,193.8-83.08,22-142.4,38.9-142.4,38.9C232.41,361,166,337.63,169,366.82s2.9,32.83,3.77,45.85c.94,14.68,28.26,37.2,99.08,27.11,17.08-2.53,51-9.94,94.53-20.77C316.94,566.27,265.55,676.56,212,803.82c83.32-60.42,163.73-238.31,223.31-402.7,33.15-8.91,68.92-19,105.53-29.86-32.08,76.17-62,152.89-88.08,221-15.34,35-16.05,61.28-10.94,75.88,4.47,12.74,9.47,27,39.39,42.29,8-44.5,104.13-257.69,138.53-354,1.2-3.41,2.49-7,3.8-10.62C689,324.71,752.56,302.1,803.67,280Z" transform="translate(-168.86 -0.58)"/></g></svg>