<?xml version="1.0" encoding="utf-8"?>
<!-- Generator: Adobe Illustrator 24.0.1, SVG Export Plug-In . SVG Version: 6.00 Build 0)  -->
<svg version="1.1" id="Calque_1" xmlns="http://www.w3.org/2000/svg" xmlns:xlink="http://www.w3.org/1999/xlink" x="0px" y="0px"
	 viewBox="0 0 1080 1080" style="enable-background:new 0 0 1080 1080;" xml:space="preserve">
<style type="text/css">
	.st0{fill:#FFFFFF;}
</style>
<g id="Groupe_948" transform="translate(-0.001 0.002)">
	<g id="Groupe_946" transform="translate(0.001 -0.002)">
		<g id="Groupe_945" transform="translate(0 0)">
			<path id="Tracé_1801" class="st0" d="M1055.3,853.35L888.66,686.58c-34.54-33.05-89.28-32.03-122.58,2.28l-83.95,83.95
				l-16.59-9.24c-74.47-38.28-142.77-87.54-202.6-146.13c-58.64-59.78-108.02-127.98-146.51-202.35
				c-3.04-5.57-6.08-11.02-8.99-16.21l56.35-56.35l28.62-27.6c34.38-33.26,35.4-88.06,2.28-122.58L227.79,25.59
				c-34.53-33.2-89.43-32.19-122.7,2.28L58.11,75.1l1.27,1.27c-16.15,20.76-29.2,43.75-38.75,68.25
				c-8.65,22.27-14.44,45.54-17.22,69.27c-22.03,182.6,61.41,349.36,287.7,575.65c312.9,312.9,565.01,289.22,575.9,288.46
				c23.96-2.89,47.46-8.84,69.9-17.73c24.38-9.32,47.28-22.11,68-37.99l1.01,0.89l47.61-46.6c34.51-33.43,35.39-88.5,1.96-123.01
				C1055.43,853.48,1055.37,853.41,1055.3,853.35z"/>
		</g>
	</g>
</g>
</svg>
