<?xml version="1.0" encoding="utf-8"?>
<!-- Generator: Adobe Illustrator 24.0.1, SVG Export Plug-In . SVG Version: 6.00 Build 0)  -->
<svg version="1.1" id="Calque_1" xmlns="http://www.w3.org/2000/svg" xmlns:xlink="http://www.w3.org/1999/xlink" x="0px" y="0px"
	 viewBox="0 0 1080 1080" style="enable-background:new 0 0 1080 1080;" xml:space="preserve">
<style type="text/css">
	.st0{fill:#FFFFFF;}
</style>
<path id="Tracé_1800" class="st0" d="M794.64,105.39C728,36.6,635.88-1.56,540.11-0.05C444.35-1.56,352.23,36.6,285.58,105.39
	c-68.79,66.64-106.95,158.77-105.44,254.53c-1.68,43.29,6.16,86.42,22.97,126.35l256.83,543.75c6.84,15.29,18.29,28.06,32.74,36.53
	c29.11,17.82,65.76,17.82,94.87,0c14.51-8.6,26.14-21.31,33.42-36.53l255.91-544.21c16.81-39.93,24.66-83.06,22.97-126.35
	C901.31,263.89,863.24,171.96,794.64,105.39z M667.38,487.19c-33.34,34.35-79.4,53.38-127.26,52.61
	c-47.88,0.74-93.93-18.34-127.26-52.72c-34.39-33.32-53.47-79.38-52.72-127.26c-0.75-47.88,18.33-93.94,52.72-127.26
	c33.32-34.39,79.38-53.47,127.26-52.72c47.88-0.75,93.94,18.33,127.26,52.72c34.38,33.37,53.42,79.48,52.61,127.38
	C720.76,407.79,701.73,453.84,667.38,487.19z"/>
</svg>
