<?xml version="1.0" encoding="utf-8"?>
<!-- Generator: Adobe Illustrator 24.0.1, SVG Export Plug-In . SVG Version: 6.00 Build 0)  -->
<svg version="1.1" id="Calque_1" xmlns="http://www.w3.org/2000/svg" xmlns:xlink="http://www.w3.org/1999/xlink" x="0px" y="0px"
	 viewBox="0 0 1080 1080" style="enable-background:new 0 0 1080 1080;" xml:space="preserve">
<style type="text/css">
	.st0{fill:#FFFFFF;}
</style>
<g id="Groupe_936">
	<path id="Tracé_1797" class="st0" d="M85.85,185.43l388.67,307.73c18.86,13.86,42.05,20.54,65.39,18.84
		c23.34,1.64,46.5-5.04,65.39-18.84l388.48-307.73c31.38-24.4,24.31-44.57-15.45-44.57H101.3
		C61.82,140.86,54.85,161.03,85.85,185.43z"/>
	<path id="Tracé_1798" class="st0" d="M1022.04,266.74L597.29,589.26c-16.65,11.97-36.79,18.1-57.29,17.43
		c-20.5,0.72-40.66-5.41-57.29-17.43L57.96,266.74c-31.38-24.03-57.29-11.31-57.29,28.17v528.96c0.21,39.67,32.31,71.78,71.99,71.99
		h934.68c39.67-0.21,71.78-32.31,71.99-71.99V294.91C1079.33,255.44,1053.42,242.72,1022.04,266.74z"/>
</g>
</svg>
