<svg id="Calque_1" data-name="Calque 1" xmlns="http://www.w3.org/2000/svg" viewBox="0 0 1080 1080"><defs><style>.cls-1{fill:#fff;}</style></defs><title>Twitter</title><g id="Groupe_44" data-name="Groupe 44"><path id="Tracé_139" data-name="Tracé 139" class="cls-1" d="M539.7,0C241.46,0-.32,241.74-.34,540s241.72,540,540,540,540-241.71,540-540V540C1079.68,241.78,838,0,539.77,0h-.07m3.79,405.41a128.06,128.06,0,0,1,218.1-116.69,256.7,256.7,0,0,0,81.24-31.11,128.75,128.75,0,0,1-56.24,70.82A258.73,258.73,0,0,0,860,308.32a259,259,0,0,1-63.83,66.22c.3,5.45.38,11,.38,16.61,0,169.07-128.74,364-364.11,364A363,363,0,0,1,236.2,697.7a267.58,267.58,0,0,0,30.6,1.81,256.4,256.4,0,0,0,158.89-54.85,128,128,0,0,1-119.48-88.8,130.32,130.32,0,0,0,24.05,2.33,128,128,0,0,0,33.66-4.53A128,128,0,0,1,261.34,428.14v-1.59a127,127,0,0,0,58,15.89A128,128,0,0,1,279.7,271.55,363.11,363.11,0,0,0,543.49,405.3" transform="translate(0.34 0)"/></g></svg>