<svg id="Calque_1" data-name="Calque 1" xmlns="http://www.w3.org/2000/svg" viewBox="0 0 1080 1080"><defs><style>.cls-1{fill:#fff;}</style></defs><title>Youtube</title><g id="Groupe_47" data-name="Groupe 47"><path id="Tracé_141" data-name="Tracé 141" class="cls-1" d="M736,582a51.4,51.4,0,0,0-37.44,14.07,48,48,0,0,0-14.48,36.21v76.8a54.46,54.46,0,0,0,13.11,38.73A47.09,47.09,0,0,0,733.49,762a51,51,0,0,0,38.31-13.2A54.59,54.59,0,0,0,784.7,709v-8.83H749.53v7.95a38.1,38.1,0,0,1-3.36,19.51,14.33,14.33,0,0,1-11.93,4.44,12.89,12.89,0,0,1-11.58-5.16,38.2,38.2,0,0,1-3.36-18.79V676h65.42V632.22A51.22,51.22,0,0,0,772,594.92a47.93,47.93,0,0,0-36-13M719.3,649.28V632a25.9,25.9,0,0,1,3.5-15.39,13.83,13.83,0,0,1,11.74-4.73,13.29,13.29,0,0,1,11.35,4.73A25.22,25.22,0,0,1,749.55,632v17.27Z" transform="translate(-0.38 0)"/><g id="Groupe_46" data-name="Groupe 46"><path id="Tracé_142" data-name="Tracé 142" class="cls-1" d="M542.13,586.31H508V716.14a45.74,45.74,0,0,1-10.57,9.24,19.24,19.24,0,0,1-9.54,3.51l-7-2.64a14.71,14.71,0,0,1-2.19-8.79V586.31H444.6V729.18a37.37,37.37,0,0,0,6,23,21.38,21.38,0,0,0,17.89,7.65,40.38,40.38,0,0,0,19.87-5.48,69.19,69.19,0,0,0,19.75-15.89v18.8h34.16Z" transform="translate(-0.38 0)"/><path id="Tracé_143" data-name="Tracé 143" class="cls-1" d="M547.92,262.11a17.06,17.06,0,0,0-11.45,3.79,12.84,12.84,0,0,0-4.37,9.93V378.48a16.45,16.45,0,0,0,4.09,11.91,15.31,15.31,0,0,0,11.73,4.31,17.12,17.12,0,0,0,12.38-4.36A15.44,15.44,0,0,0,565,378.42V275.78a12.4,12.4,0,0,0-4.67-9.94,19.13,19.13,0,0,0-12.38-3.78" transform="translate(-0.38 0)"/><path id="Tracé_144" data-name="Tracé 144" class="cls-1" d="M540.43,0C242.19,0,.41,241.74.38,540s241.73,540,540,540,540-241.71,540-540v-.1C1080.41,241.76,838.7,0,540.52,0h-.09M415.84,269.33h2.79l26.72-102.08h44.08L438.94,316.69V422.61H395.67V321.5L344,167.25h43.72Zm132.24,158a56.76,56.76,0,0,1-40.44-14.21A49.78,49.78,0,0,1,492.55,375V277.33A43.35,43.35,0,0,1,508,242.44a63.43,63.43,0,0,1,41.88-12.89A56.55,56.55,0,0,1,589,243.25a45.23,45.23,0,0,1,15.14,35.13v97.38a49.15,49.15,0,0,1-14.85,37.88,59.15,59.15,0,0,1-41.23,13.69m136-36a23,23,0,0,0,10.85-4,50.35,50.35,0,0,0,11.72-10.11V234.17h38.45V422.49H706.58V401.65a82.11,82.11,0,0,1-22.06,17.56,47.58,47.58,0,0,1-22.3,6A24.22,24.22,0,0,1,642,416.65a39.72,39.72,0,0,1-6.77-25.13V234.09h38.47V378.48a15.4,15.4,0,0,0,2.48,9.68ZM339.51,828.08A123.46,123.46,0,0,1,216.16,704.59V605.46A123.42,123.42,0,0,1,339.51,482H768.29A123.42,123.42,0,0,1,891.64,605.46v99.13A123.46,123.46,0,0,1,768.29,828.08Z" transform="translate(-0.38 0)"/><path id="Tracé_145" data-name="Tracé 145" class="cls-1" d="M602.45,525.58h-34.6V757.24h34.6v-13.1A43.84,43.84,0,0,0,617,755.79a42,42,0,0,0,17.88,3.74,28.23,28.23,0,0,0,23.17-9.68A42.57,42.57,0,0,0,666.18,722V627.18a51.19,51.19,0,0,0-8.58-32.06,29.52,29.52,0,0,0-24.79-10.85,34.2,34.2,0,0,0-15.79,4,55.3,55.3,0,0,0-14.59,11.91Zm16.33,207.11-8.3-1.82-8-6.09V618.25l7-5.24,7.21-1.59a13.24,13.24,0,0,1,10.72,4.42A20.49,20.49,0,0,1,631,629v88.38A17.7,17.7,0,0,1,628,729a10.7,10.7,0,0,1-9.16,3.7" transform="translate(-0.38 0)"/><path id="Tracé_146" data-name="Tracé 146" class="cls-1" d="M429.59,525.58H311.35v33.6H351.2V757.24h38.47V559.18h39.92Z" transform="translate(-0.38 0)"/></g></g></svg>